<svg id="wave" style="transform:rotate(0deg); transition: 0.3s" viewBox="0 0 1440 490" version="1.1" xmlns="http://www.w3.org/2000/svg"><defs><linearGradient id="sw-gradient-0" x1="0" x2="0" y1="1" y2="0"><stop stop-color="rgba(41, 56, 88, 1)" offset="0%"></stop><stop stop-color="rgba(41, 56, 88, 1)" offset="100%"></stop></linearGradient></defs><path style="transform:translate(0, 0px); opacity:1" fill="url(#sw-gradient-0)" d="M0,392L60,326.7C120,261,240,131,360,106.2C480,82,600,163,720,236.8C840,310,960,376,1080,334.8C1200,294,1320,147,1440,147C1560,147,1680,294,1800,294C1920,294,2040,147,2160,106.2C2280,65,2400,131,2520,179.7C2640,229,2760,261,2880,253.2C3000,245,3120,196,3240,179.7C3360,163,3480,180,3600,196C3720,212,3840,229,3960,261.3C4080,294,4200,343,4320,310.3C4440,278,4560,163,4680,147C4800,131,4920,212,5040,253.2C5160,294,5280,294,5400,261.3C5520,229,5640,163,5760,122.5C5880,82,6000,65,6120,98C6240,131,6360,212,6480,204.2C6600,196,6720,98,6840,81.7C6960,65,7080,131,7200,171.5C7320,212,7440,229,7560,236.8C7680,245,7800,245,7920,277.7C8040,310,8160,376,8280,343C8400,310,8520,180,8580,114.3L8640,49L8640,490L8580,490C8520,490,8400,490,8280,490C8160,490,8040,490,7920,490C7800,490,7680,490,7560,490C7440,490,7320,490,7200,490C7080,490,6960,490,6840,490C6720,490,6600,490,6480,490C6360,490,6240,490,6120,490C6000,490,5880,490,5760,490C5640,490,5520,490,5400,490C5280,490,5160,490,5040,490C4920,490,4800,490,4680,490C4560,490,4440,490,4320,490C4200,490,4080,490,3960,490C3840,490,3720,490,3600,490C3480,490,3360,490,3240,490C3120,490,3000,490,2880,490C2760,490,2640,490,2520,490C2400,490,2280,490,2160,490C2040,490,1920,490,1800,490C1680,490,1560,490,1440,490C1320,490,1200,490,1080,490C960,490,840,490,720,490C600,490,480,490,360,490C240,490,120,490,60,490L0,490Z"></path><defs><linearGradient id="sw-gradient-1" x1="0" x2="0" y1="1" y2="0"><stop stop-color="rgba(53, 68, 99, 1)" offset="0%"></stop><stop stop-color="rgba(53, 68, 99, 1)" offset="100%"></stop></linearGradient></defs><path style="transform:translate(0, 50px); opacity:0.9" fill="url(#sw-gradient-1)" d="M0,49L60,98C120,147,240,245,360,245C480,245,600,147,720,114.3C840,82,960,114,1080,179.7C1200,245,1320,343,1440,318.5C1560,294,1680,147,1800,147C1920,147,2040,294,2160,367.5C2280,441,2400,441,2520,375.7C2640,310,2760,180,2880,179.7C3000,180,3120,310,3240,367.5C3360,425,3480,408,3600,375.7C3720,343,3840,294,3960,269.5C4080,245,4200,245,4320,245C4440,245,4560,245,4680,236.8C4800,229,4920,212,5040,196C5160,180,5280,163,5400,163.3C5520,163,5640,180,5760,163.3C5880,147,6000,98,6120,98C6240,98,6360,147,6480,138.8C6600,131,6720,65,6840,65.3C6960,65,7080,131,7200,204.2C7320,278,7440,359,7560,400.2C7680,441,7800,441,7920,400.2C8040,359,8160,278,8280,212.3C8400,147,8520,98,8580,73.5L8640,49L8640,490L8580,490C8520,490,8400,490,8280,490C8160,490,8040,490,7920,490C7800,490,7680,490,7560,490C7440,490,7320,490,7200,490C7080,490,6960,490,6840,490C6720,490,6600,490,6480,490C6360,490,6240,490,6120,490C6000,490,5880,490,5760,490C5640,490,5520,490,5400,490C5280,490,5160,490,5040,490C4920,490,4800,490,4680,490C4560,490,4440,490,4320,490C4200,490,4080,490,3960,490C3840,490,3720,490,3600,490C3480,490,3360,490,3240,490C3120,490,3000,490,2880,490C2760,490,2640,490,2520,490C2400,490,2280,490,2160,490C2040,490,1920,490,1800,490C1680,490,1560,490,1440,490C1320,490,1200,490,1080,490C960,490,840,490,720,490C600,490,480,490,360,490C240,490,120,490,60,490L0,490Z"></path><defs><linearGradient id="sw-gradient-2" x1="0" x2="0" y1="1" y2="0"><stop stop-color="rgba(65, 77, 107, 1)" offset="0%"></stop><stop stop-color="rgba(65, 77, 107, 1)" offset="100%"></stop></linearGradient></defs><path style="transform:translate(0, 100px); opacity:0.8" fill="url(#sw-gradient-2)" d="M0,98L60,122.5C120,147,240,196,360,253.2C480,310,600,376,720,367.5C840,359,960,278,1080,220.5C1200,163,1320,131,1440,122.5C1560,114,1680,131,1800,179.7C1920,229,2040,310,2160,359.3C2280,408,2400,425,2520,408.3C2640,392,2760,343,2880,277.7C3000,212,3120,131,3240,114.3C3360,98,3480,147,3600,187.8C3720,229,3840,261,3960,236.8C4080,212,4200,131,4320,147C4440,163,4560,278,4680,343C4800,408,4920,425,5040,400.2C5160,376,5280,310,5400,294C5520,278,5640,310,5760,302.2C5880,294,6000,245,6120,236.8C6240,229,6360,261,6480,269.5C6600,278,6720,261,6840,269.5C6960,278,7080,310,7200,294C7320,278,7440,212,7560,187.8C7680,163,7800,180,7920,163.3C8040,147,8160,98,8280,73.5C8400,49,8520,49,8580,49L8640,49L8640,490L8580,490C8520,490,8400,490,8280,490C8160,490,8040,490,7920,490C7800,490,7680,490,7560,490C7440,490,7320,490,7200,490C7080,490,6960,490,6840,490C6720,490,6600,490,6480,490C6360,490,6240,490,6120,490C6000,490,5880,490,5760,490C5640,490,5520,490,5400,490C5280,490,5160,490,5040,490C4920,490,4800,490,4680,490C4560,490,4440,490,4320,490C4200,490,4080,490,3960,490C3840,490,3720,490,3600,490C3480,490,3360,490,3240,490C3120,490,3000,490,2880,490C2760,490,2640,490,2520,490C2400,490,2280,490,2160,490C2040,490,1920,490,1800,490C1680,490,1560,490,1440,490C1320,490,1200,490,1080,490C960,490,840,490,720,490C600,490,480,490,360,490C240,490,120,490,60,490L0,490Z"></path></svg>